<?xml version="1.0" standalone="no"?>
<!DOCTYPE svg PUBLIC "-//W3C//DTD SVG 20010904//EN"
 "http://www.w3.org/TR/2001/REC-SVG-20010904/DTD/svg10.dtd">
<svg version="1.0" xmlns="http://www.w3.org/2000/svg"
 width="640.000000pt" height="640.000000pt" viewBox="0 0 640.000000 640.000000"
 preserveAspectRatio="xMidYMid meet">
<metadata>
Created by potrace 1.11, written by Peter Selinger 2001-2013
</metadata>
<g transform="translate(0.000000,640.000000) scale(0.100000,-0.100000)"
fill="#000000" stroke="none">
<path d="M2970 6389 c-1058 -84 -1974 -651 -2520 -1559 -315 -523 -483 -1208
-442 -1803 32 -453 129 -834 311 -1212 438 -911 1273 -1554 2277 -1754 348
-69 758 -75 1124 -15 980 160 1840 780 2309 1665 213 403 328 821 363 1316 20
297 -14 645 -97 967 -266 1046 -1048 1889 -2073 2235 -396 134 -851 192 -1252
160z m451 -1463 c488 -79 880 -403 1003 -829 32 -111 46 -241 46 -435 l0 -160
30 -12 c49 -20 117 -101 134 -161 24 -79 24 -1169 0 -1248 -26 -90 -143 -191
-221 -191 -17 0 -23 -6 -23 -22 -1 -55 -34 -68 -177 -68 -91 0 -124 4 -141 16
l-22 15 0 881 c0 806 1 883 17 900 13 14 31 18 91 18 l74 0 -5 163 c-5 187
-19 249 -82 382 -130 276 -401 477 -732 541 -115 23 -310 23 -424 1 -415 -81
-734 -376 -805 -745 -8 -41 -14 -134 -14 -208 l0 -134 72 0 c120 0 108 102
108 -912 0 -865 0 -878 -20 -898 -18 -18 -33 -20 -148 -20 -143 0 -172 10
-172 58 0 25 -5 28 -52 40 -94 22 -172 98 -198 192 -6 21 -10 267 -10 620 1
466 4 593 14 623 22 62 67 118 117 146 l47 26 5 225 c4 158 10 247 22 300 65
289 266 559 536 721 140 84 338 155 495 178 95 14 341 12 435 -3z"/>
</g>
</svg>
